<svg height="512" viewBox="0 0 60 60" width="512" xmlns="http://www.w3.org/2000/svg"><g id="Page-1" fill="none" fill-rule="evenodd"><g id="002---Happy" fill-rule="nonzero"><g id="Icons" transform="translate(1 1)"><circle id="Oval" cx="29" cy="29" fill="#90ac00" r="29"/><path id="Shape" d="m55 26c.0006917 11.344082-6.6135605 21.6468997-16.9282719 26.3686497-10.3147115 4.7217501-22.4355903 2.9952854-31.0217281-4.4186497-9.92934165-11.4994972-9.29953422-28.7132474 1.44360919-39.45639081 10.74314341-10.74314341 27.95689361-11.37295084 39.45639081-1.44360919 4.5592425 5.259265 7.0631611 11.9896561 7.05 18.95z" fill="#a4c400"/><circle id="Oval" cx="15" cy="19" fill="#3f51b5" r="3"/><circle id="Oval" cx="35" cy="19" fill="#3f51b5" r="3"/><path id="Shape" d="m21 30h8c.5522847 0 1 .4477153 1 1v1c0 2.7614237-2.2385763 5-5 5s-5-2.2385763-5-5v-1c0-.5522847.4477153-1 1-1z" fill="#bb193b"/></g><g id="Layer_10" fill="#000"><path id="Shape" d="m30 60c-16.5675673-.0006627-29.99782089-13.4316327-29.99759997-29.9992.00022091-16.5675673 13.43083267-29.99817906 29.99839997-29.99839997 16.5675673-.00022092 29.9985373 13.43003267 29.9992 29.99759997.0061616 7.958382-3.1525649 15.59258-8.7799925 21.2200075-5.6274275 5.6274276-13.2616255 8.7861541-21.2200075 8.7799925zm0-58c-13.5526976-.00134058-25.16122391 9.702947-27.56251399 23.041216-2.40129009 13.338269 5.09393944 26.4818079 17.79617519 31.207146 12.7022358 4.725338 26.9653379-.3239194 33.8653624-11.9886215s4.4563394-26.59653-5.8021236-35.4531405c-5.0863712-4.38793482-11.5793756-6.80338682-18.2969-6.8066z"/><path id="Shape" d="m16 24c-2.209139 0-4-1.790861-4-4s1.790861-4 4-4 4 1.790861 4 4c-.0024799 2.208111-1.791889 3.9975201-4 4zm0-6c-1.1045695 0-2 .8954305-2 2s.8954305 2 2 2 2-.8954305 2-2c-.0011025-1.1041125-.8958875-1.9988975-2-2z"/><path id="Shape" d="m36 24c-2.209139 0-4-1.790861-4-4s1.790861-4 4-4 4 1.790861 4 4c-.0024799 2.208111-1.791889 3.9975201-4 4zm0-6c-1.1045695 0-2 .8954305-2 2s.8954305 2 2 2 2-.8954305 2-2c-.0011025-1.1041125-.8958875-1.9988975-2-2z"/><path id="Shape" d="m26 39c-3.3122007-.0036374-5.9963626-2.6877993-6-6v-1c.0011025-1.1041125.8958875-1.9988975 2-2h8c1.1041125.0011025 1.9988975.8958875 2 2v1c-.0036374 3.3122007-2.6877993 5.9963626-6 6zm-4-7v1c0 2.209139 1.790861 4 4 4s4-1.790861 4-4v-1z"/><path id="Shape" d="m20 24h-8c-.5522847 0-1-.4477153-1-1s.4477153-1 1-1h8c.5522847 0 1 .4477153 1 1s-.4477153 1-1 1z"/><path id="Shape" d="m40 24h-8c-.5522847 0-1-.4477153-1-1s.4477153-1 1-1h8c.5522847 0 1 .4477153 1 1s-.4477153 1-1 1z"/></g></g></g></svg>