<svg height="512" viewBox="0 0 60 60" width="512" xmlns="http://www.w3.org/2000/svg"><g id="Page-1" fill="none" fill-rule="evenodd"><g id="003---Ok" fill-rule="nonzero"><g id="Icons" transform="translate(1 1)"><circle id="Oval" cx="29" cy="29" fill="#fec108" r="29"/><path id="Shape" d="m55 26c.0006917 11.344082-6.6135605 21.6468997-16.9282719 26.3686497-10.3147115 4.7217501-22.4355903 2.9952854-31.0217281-4.4186497-9.92934165-11.4994972-9.29953422-28.7132474 1.44360919-39.45639081 10.74314341-10.74314341 27.95689361-11.37295084 39.45639081-1.44360919 4.5592425 5.259265 7.0631611 11.9896561 7.05 18.95z" fill="#ffdc00"/><g fill="#3f51b5"><circle id="Oval" cx="15" cy="19" r="3"/><circle id="Oval" cx="35" cy="19" r="3"/></g></g><g id="Layer_10" fill="#000"><path id="Shape" d="m30 60c-16.5685425 0-30-13.4314575-30-30s13.4314575-30 30-30 30 13.4314575 30 30c-.018737 16.5607751-13.4392249 29.981263-30 30zm0-58c-15.463973 0-28 12.536027-28 28s12.536027 28 28 28 28-12.536027 28-28c-.0173046-15.4567995-12.5432005-27.9826954-28-28z"/><path id="Shape" d="m16 24c-2.209139 0-4-1.790861-4-4s1.790861-4 4-4 4 1.790861 4 4c-.0024799 2.208111-1.791889 3.9975201-4 4zm0-6c-1.1045695 0-2 .8954305-2 2s.8954305 2 2 2 2-.8954305 2-2c-.0011025-1.1041125-.8958875-1.9988975-2-2z"/><path id="Shape" d="m36 24c-2.209139 0-4-1.790861-4-4s1.790861-4 4-4 4 1.790861 4 4c-.0024799 2.208111-1.791889 3.9975201-4 4zm0-6c-1.1045695 0-2 .8954305-2 2s.8954305 2 2 2 2-.8954305 2-2c-.0011025-1.1041125-.8958875-1.9988975-2-2z"/><path id="Shape" d="m28 39h-5c-1.6561003-.0018187-2.9981813-1.3438997-3-3 0-.5522847.4477153-1 1-1s1 .4477153 1 1c.0007162.5519878.4480122.9992838 1 1h5c.5522847 0 1 .4477153 1 1s-.4477153 1-1 1z"/><path id="Shape" d="m35 33h-18c-.5522847 0-1-.4477153-1-1s.4477153-1 1-1h18c.5522847 0 1 .4477153 1 1s-.4477153 1-1 1z"/></g></g></g></svg>