<svg height="512" viewBox="0 0 60 60" width="512" xmlns="http://www.w3.org/2000/svg"><g id="Page-1" fill="none" fill-rule="evenodd"><g id="001---Very-Happy" fill-rule="nonzero"><g id="Icons" transform="translate(0 1)"><path id="Shape" d="m59 29c.0018787 13.6381754-9.4981536 25.4353503-22.8230449 28.3417407s-26.87466255-3.8632217-32.55220911-16.2634353c-5.67754657-12.4002137-1.9489686-27.0808695 8.95760141-35.26906613 10.9065699-8.18819666 26.0445095-7.67173328 36.3676526 1.24076073 6.3814651 5.507896 10.0500098 13.5202897 10.05 21.95z" fill="#549414"/><path id="Shape" d="m56 26c.0006917 11.344082-6.6135605 21.6468997-16.9282719 26.3686497-10.3147115 4.7217501-22.4355903 2.9952854-31.0217281-4.4186497-9.92934165-11.4994972-9.29953422-28.7132474 1.44360919-39.45639081 10.74314341-10.74314341 27.95689361-11.37295084 39.45639081-1.44360919 4.5592425 5.259265 7.0631611 11.9896561 7.05 18.95z" fill="#60a917"/><path id="Shape" d="m37.9491 29c.2832353.0011136.5529689.121187.7433436.3309034.1903746.2097165.2838692.4897747.2576564.7717966-.570958 6.1734102-5.750243 10.8957846-11.95 10.8957846s-11.379042-4.7223744-11.95-10.8957846c-.0262098-.2819874.0672584-.5620134.2575889-.771723.1903305-.2097097.4600107-.3298074.7432111-.330977z" fill="#bb193b"/><path id="Shape" d="m38.04 33.73c-1.8987595 4.4099168-6.2386826 7.2678191-11.04 7.27-.9465046.0029701-1.889936-.1078244-2.81-.33-.3315373-.6761937-.5317456-1.4091596-.59-2.16 5.0611423 1.4923786 10.5033199-.4961874 13.41-4.9.37.04.71.08 1.03.12z" fill="#ad1457"/><path id="Shape" d="m37.01 33.61c-2.9066801 4.4038126-8.3488577 6.3923786-13.41 4.9-.0777273-1.3198481.4352497-2.6059549 1.4-3.51 2.04-2.04 8.25-1.77 12.01-1.39z" fill="#e91e63"/></g><g id="Layer_10" fill="#000"><path id="Shape" d="m30 60c-16.5675673-.0006627-29.99782089-13.4316327-29.99759997-29.9992.00022091-16.5675673 13.43083267-29.99817906 29.99839997-29.99839997 16.5675673-.00022092 29.9985373 13.43003267 29.9992 29.99759997.0061616 7.958382-3.1525649 15.59258-8.7799925 21.2200075-5.6274275 5.6274276-13.2616255 8.7861541-21.2200075 8.7799925zm0-58c-13.5526976-.00134058-25.16122391 9.702947-27.56251399 23.041216-2.40129009 13.338269 5.09393944 26.4818079 17.79617519 31.207146 12.7022358 4.725338 26.9653379-.3239194 33.8653624-11.9886215s4.4563394-26.59653-5.8021236-35.4531405c-5.0863712-4.38793482-11.5793756-6.80338682-18.2969-6.8066z"/><path id="Shape" d="m27 43c-6.7306308.0339297-12.3615992-5.1013284-12.9463-11.8066-.0516696-.5618836.1352863-1.119601.5151676-1.5368217.3798812-.4172208.9176791-.6554951 1.4819324-.6565783h21.8984c.5642533.0010832 1.1020512.2393575 1.4819324.6565783.3798813.4172207.5668372.9749381.5151676 1.5368217-.5847008 6.7052716-6.2156692 11.8405297-12.9463 11.8066zm-10.9492-12c.5155512 5.6616314 5.261256 9.9971497 10.9463114 10.0001864 5.6850553.0030368 10.4353892-4.327409 10.9569886-9.9884864l-.0049-.0117z"/><path id="Shape" d="m27 43c-1.0266709.0028133-2.0499645-.1176828-3.0479-.3589-.2921998-.0714085-.5366632-.2706894-.6655-.5425-.3880691-.7911186-.6204517-1.6494575-.6845-2.5283-.0972363-1.6057605.5219615-3.172083 1.6909-4.2773 1.792-1.7915 6.1054-2.3535 12.8174-1.6783.3828.0415.7285.0821 1.0537.1231.3120318.0390236.587533.2225491.7437618.4954579.1562289.2729088.1749861.6034095.0506382.8922421-2.0539923 4.7790585-6.7567423 7.8757517-11.9585 7.8745zm-2.0942-2.1968c4.5827482.8767628 9.2222742-1.2198225 11.5927-5.2387-5.53-.52-9.5512-.0977-10.7915 1.1425-.7627461.703979-1.1695452 1.7129392-1.1084 2.7491.0334282.4620235.1370155.9162631.3072 1.3471z"/><path id="Shape" d="m11.0005 23c-.4247083.000093-.8031455-.2680941-.9437928-.6688378-.14064738-.4007437-.0128195-.8466125.3187928-1.1119622 1.9280619-1.5959615 4.3105176-2.5429108 6.8081-2.706-1.0241494-.3514435-2.1008928-.5250157-3.1836-.5132-.5522847 0-1-.4477153-1-1s.4477153-1 1-1c5.4722 0 7.7383 3.3047 7.832 3.4453.2432401.3644887.2208452.8448813-.0552496 1.1851597s-.7415672.4611671-1.1483504.2982403c-3.1195098-.9837412-6.525943-.2830387-9.0039 1.8521-.1769407.1420451-.3970974.2193822-.624.2192z"/><path id="Shape" d="m43 23c-.2269026.0001822-.4470593-.0771549-.624-.2192-2.4791098-2.1367944-5.888062-2.8371417-9.0088-1.8508-.4065044.1591291-.8692537.0364439-1.1435287-.3031751-.2742751-.3396189-.2968035-.817825-.0556713-1.1817249.0937-.1404 2.3598-3.4451 7.832-3.4451.5522847 0 1 .4477153 1 1s-.4477153 1-1 1c-1.0824274-.0118956-2.1588837.1618541-3.1826.5137 2.4972851.1626757 4.8794967 1.109492 6.8071 2.7055.3315406.2652924.4593924.7110341.3188756 1.1117263-.1405168.4006923-.518759.6689544-.9433756.6690737z"/></g></g></g></svg>