<svg height="512" viewBox="0 0 60 60" width="512" xmlns="http://www.w3.org/2000/svg"><g id="Page-1" fill="none" fill-rule="evenodd"><g id="006---Very-Sad" fill-rule="nonzero"><g id="Icons" transform="translate(1 1)"><circle id="Oval" cx="29" cy="29" fill="#0377bc" r="29"/><path id="Shape" d="m55 26c.0006917 11.344082-6.6135605 21.6468997-16.9282719 26.3686497-10.3147115 4.7217501-22.4355903 2.9952854-31.0217281-4.4186497-9.92934165-11.4994972-9.29953422-28.7132474 1.44360919-39.45639081 10.74314341-10.74314341 27.95689361-11.37295084 39.45639081-1.44360919 4.5592425 5.259265 7.0631611 11.9896561 7.05 18.95z" fill="#02a9f4"/><path id="Shape" d="m22 27h6c3.8659932 0 7 3.1340068 7 7v4c0 .5522847-.4477153 1-1 1h-18c-.5522847 0-1-.4477153-1-1v-4c0-3.8659932 3.1340068-7 7-7z" fill="#bb193b"/><path id="Shape" d="m35 34v4c-.0015928.5516236-.4483764.9984072-1 1h-12c-.1224622-.8008655-.1426238-1.6140497-.06-2.42v-.02c.0265882-1.4625689.805203-2.8081362 2.06-3.56 3.51-1.75 9.33-1.2 10.7-1.04.1975301.6620464.2985696 1.3491154.3 2.04z" fill="#ad1457"/><path id="Shape" d="m35 34v2c-.0015928.5516236-.4483764.9984072-1 1h-12s-.03-.16-.06-.42v-.02c.0265882-1.4625689.805203-2.8081362 2.06-3.56 3.51-1.75 9.33-1.2 10.7-1.04.1975301.6620464.2985696 1.3491154.3 2.04z" fill="#e91e63"/><path id="Shape" d="m49.764 32.5979c.6192627 2.6416155-.9805543 5.295237-3.6057334 5.9808413-2.6251792.6856044-5.3182556-.8468644-6.0697666-3.4539413-.6803-2.6048 2.7846-9.1248 2.7846-9.1248s6.2105 3.9928 6.8909 6.5979z" fill="#00838f"/><path id="Shape" d="m48.2866 31.1833c.4859928 2.0750574-.770811 4.1592503-2.832853 4.6977994-2.0620419.5385491-4.1774891-.6649038-4.768247-2.7125994-.5345-2.0465 2.1876-7.1685 2.1876-7.1685s4.8791 3.1368 5.4135 5.1833z" fill="#00bcd4"/><path id="Shape" d="m.236 32.5979c-.65503321 2.6469891.95916084 5.3239575 3.6059 5.98 2.62974407.7222415 5.34714752-.8237238 6.07-3.4533.6799-2.6046-2.785-9.1246-2.785-9.1246s-6.2105 3.9928-6.8909 6.5979z" fill="#00838f"/><path id="Shape" d="m1.7134 31.1833c-.51469864 2.0795652.75342233 4.1827443 2.8328 4.6982 2.06584772.5671066 4.20038749-.6473737 4.7683-2.713.5345-2.0465-2.1876-7.1685-2.1876-7.1685s-4.8791 3.1368-5.4135 5.1833z" fill="#00bcd4"/><g fill="#3f51b5"><circle id="Oval" cx="15" cy="19" r="3"/><circle id="Oval" cx="35" cy="19" r="3"/></g></g><g id="Layer_10" fill="#000"><path id="Shape" d="m30 60c-13.5054049-.0146768-25.34194343-9.037406-28.9346-22.0562-.09419308-.3447613.00269688-.7135853.25417239-.9675395.2514755-.2539543.61933143-.3544571.96500001-.26365.34566858.090807.61663453.3591282.7108276.7038895 4.02448152 14.8386169 19.0796204 23.8228675 34.049827 20.3194525s24.4751437-18.2353578 21.4970759-33.3188625c-2.9780678-15.08350474-17.368814-25.09751447-32.5471868-22.64843268s-25.68921942 16.48104778-23.7721161 31.73574268c.04483683.3544789-.10284448.7059511-.38741381.9220204s-.66279384.2639096-.9922.1255c-.32940617-.1384096-.55994936-.4420415-.60478619-.7965204-1.56141984-12.3787976 4.7021995-24.43169451 15.7297484-30.2682883 11.0275489-5.8365938 24.5164462-4.23818839 33.8744981 4.01405538 9.3580518 8.25224372 12.6312724 21.43523582 8.2199977 33.10628182-4.4112747 11.6710461-15.5859591 19.3932013-28.0628442 19.3925511z"/><path id="Shape" d="m35 41h-18c-1.1040441-.0012675-1.9987325-.8959559-2-2v-4c.0050699-4.4161763 3.5838237-7.9949301 8-8h6c4.4161763.0050699 7.9949301 3.5838237 8 8v4c-.0012675 1.1040441-.8959559 1.9987325-2 2zm-12-12c-3.3122007.0036374-5.9963626 2.6877993-6 6v4h18v-4c-.0036374-3.3122007-2.6877993-5.9963626-6-6z"/><path id="Shape" d="m35 41h-12c-.484459-.0000125-.8992321-.347286-.9844-.8242-.1368003-.8812115-.1613962-1.7762053-.0732-2.6636.001-.02.0019-.0405.0039-.0566.0384882-1.8088685 1.0295305-3.4628872 2.6064-4.35 3.7012-1.8457 9.5567-1.3394 11.2637-1.1387.3976253.0464794.7292107.3256203.8428.7095.2248515.7540917.3396358 1.5367003.3408 2.3236v4c-.0012675 1.1040441-.8959559 1.9987325-2 2zm-11.0977-2h11.0977v-4c-.0004323-.3748198-.0354136-.7488019-.1045-1.1172-1.9336-.1733-6.6045-.4062-9.4492 1.0122-.9456011.5856392-1.5171659 1.6221738-1.5078 2.7344-.001.021-.002.042-.0039.0581-.0451053.4359801-.0559051.874829-.0323 1.3125z"/><path id="Shape" d="m45.8545 40.7471c-1.0424958.0001771-2.0670492-.2712725-2.9727-.7876-1.3689489-.7690648-2.3657178-2.0624056-2.7607-3.5821-.7568-2.8989 2.4951-9.144 2.8691-9.8466.1310414-.2471024.3596351-.4279842.6302465-.4987015.2706113-.0707174.5584737-.0247984.7936535.1266015.6689.43 6.5605 4.2876 7.3173 7.1865.3981302 1.5187032.1608533 3.1340419-.6572 4.4741-.8160229 1.3542554-2.1316337 2.3335201-3.6631 2.7266-.5081917.1330279-1.0312859.200641-1.5566.2012zm-1.6006-12.2886c-1.1973 2.4634-2.5674 5.9976-2.1973 7.4136.2600116.9971774.9152522 1.8452888 1.8145 2.3486 1.9180038 1.0752272 4.3428901.4417974 5.49-1.4341.5383464-.8787557.6952839-1.9389682.4346-2.936v-.0006c-.3699-1.4179-3.2928-3.83-5.5418-5.3915z"/><path id="Shape" d="m6.1455 40.7471c-.52531413-.000559-1.04840829-.0681721-1.5566-.2012-1.53146632-.3930799-2.84707715-1.3723446-3.6631-2.7266-.81805327-1.3400581-1.05533018-2.9553968-.6572-4.4741.7568-2.8989 6.6484-6.7563 7.3173-7.1865.23517978-.1513999.52304217-.1973189.79365352-.1266015.27061135.0707173.49920512.2515991.63024648.4987015.374.7026 3.6259 6.9477 2.8691 9.8471-.3950246 1.5196736-1.391782 2.8129994-2.7607 3.5821-.90569867.5161529-1.93024914.7874294-2.9727.7871zm1.6006-12.2886c-2.249 1.563-5.1729 3.9756-5.542 5.3916v.0005c-.26068386.9970318-.10374641 2.0572443.4346 2.936 1.14710985 1.8758974 3.57199621 2.5093272 5.49 1.4341.89911762-.5032236 1.55433491-1.3511243 1.8145-2.3481.3713-1.419-.9989-4.9526-2.1971-7.4141z"/><path id="Shape" d="m16 24c-2.2081794-.0023149-3.9976851-1.7918206-4-4-.0012349-.9525312.3409884-1.8735765.9639-2.5942l1.5117 1.3086c-.3078337.3574797-.4766636.8138456-.4756 1.2856 0 1.1045695.8954305 2 2 2s2-.8954305 2-2-.8954305-2-2-2c-.2386285-.0040164-.4754612.0418991-.6953.1348l-.8086-1.8291c.4743434-.2061473.986718-.3102985 1.5039-.3057 2.209139 0 4 1.790861 4 4s-1.790861 4-4 4z"/><path id="Shape" d="m36 24c-2.209139 0-4-1.790861-4-4s1.790861-4 4-4c.517182-.0045985 1.0295566.0995527 1.5039.3057l-.8086 1.8291c-.2198388-.0929009-.4566715-.1388164-.6953-.1348-1.1045695 0-2 .8954305-2 2s.8954305 2 2 2 2-.8954305 2-2c.0010636-.4717544-.1677663-.9281203-.4756-1.2856l1.5117-1.3086c.6229116.7206235.9651349 1.6416688.9639 2.5942-.0023149 2.2081794-1.7918206 3.9976851-4 4z"/><path id="Shape" d="m11.001 21c-.435026.0005378-.8204922-.2802302-.9534132-.6944523-.13292099-.414222.0172014-.8668566.3713132-1.1195477l7-5c.4495598-.3209326 1.0741673-.2166598 1.3951.2329.3209326.4495598.2166598 1.0741673-.2329 1.3951l-7 5c-.1691887.1210768-.372051.1861215-.5801.186z"/><path id="Shape" d="m40.999 21c-.2080149.0001006-.4108391-.064943-.58-.186l-7-5c-.4495598-.3209327-.5538326-.9455402-.2329-1.3951.3209327-.4495598.9455402-.5538326 1.3951-.2329l7 5c.3541269.2527017.5042455.7053624.3712981 1.1195955-.1329473.414233-.5184536.6949859-.9534981.6944045z"/></g></g></g></svg>